<?xml version="1.0" encoding="UTF-8" standalone="no"?>
<!DOCTYPE svg PUBLIC "-//W3C//DTD SVG 1.1//EN" "http://www.w3.org/Graphics/SVG/1.1/DTD/svg11.dtd">
<svg width="100%" height="100%" viewBox="0 0 421 376" version="1.1" xmlns="http://www.w3.org/2000/svg" xmlns:xlink="http://www.w3.org/1999/xlink" xml:space="preserve" xmlns:serif="http://www.serif.com/" style="fill-rule:evenodd;clip-rule:evenodd;stroke-linejoin:round;stroke-miterlimit:2;">
    <g transform="matrix(1,0,0,1,-116.022,-100.071)">
        <g id="Calque-1" serif:id="Calque 1" transform="matrix(4.16667,0,0,4.16667,0,0)">
            <g transform="matrix(53.2606,43.1138,43.1138,-53.2606,53.6463,103.003)">
                <path d="M0.119,-0.059L0.168,-0.059L0.071,0.06C0.055,0.06 0.038,0.06 0.022,0.059L0.119,-0.059Z" style="fill:url(#_Linear1);fill-rule:nonzero;"/>
            </g>
            <g transform="matrix(0.0403084,-1.66071,-1.66071,-0.0403084,99.8188,64.4909)">
                <path d="M0.51,1.379C0.51,1.379 -0.343,-0.742 0.155,-1.039C0.491,-1.239 1.208,-0.931 1.189,-0.132C1.179,0.256 0.996,0.761 0.51,1.379Z" style="fill:url(#_Linear2);fill-rule:nonzero;"/>
            </g>
            <g transform="matrix(1.66271,-68.5034,-68.5034,-1.66271,74.1137,113.982)">
                <path d="M1.18,0.404C1.125,0.676 0.802,0.798 0.524,0.591C0.404,0.502 0.289,0.384 0.186,0.249L0.272,0.251L0.273,0.212L0.157,0.21C0.1,0.131 0.047,0.047 -0.001,-0.04C0.049,-0.022 0.097,-0.008 0.143,0.004C0.334,0.025 0.493,-0.1 0.526,-0.157C0.549,-0.197 0.589,-0.237 0.643,-0.249C0.698,-0.261 0.77,-0.248 0.77,-0.248C0.77,-0.248 0.705,-0.246 0.654,-0.236C0.603,-0.226 0.559,-0.187 0.559,-0.159C0.558,-0.131 0.603,-0.113 0.64,-0.1C0.668,-0.089 0.7,-0.087 0.75,-0.102L0.802,-0.123C0.815,-0.132 0.832,-0.146 0.838,-0.166C0.848,-0.199 0.839,-0.302 0.832,-0.33C0.825,-0.358 0.802,-0.378 0.781,-0.391C0.768,-0.399 0.753,-0.41 0.75,-0.423C0.749,-0.43 0.743,-0.464 0.735,-0.509C0.729,-0.549 0.712,-0.602 0.707,-0.604C0.702,-0.605 0.664,-0.597 0.642,-0.588C0.613,-0.577 0.608,-0.576 0.595,-0.566C0.554,-0.536 0.552,-0.395 0.557,-0.34C0.45,-0.272 0.305,-0.235 0.109,-0.227C0.109,-0.227 0.113,-0.235 0.12,-0.248C0.229,-0.473 0.391,-0.653 0.645,-0.746C0.896,-0.839 1.159,-0.724 1.187,-0.461C1.203,-0.314 1.112,-0.15 0.997,-0.06C1.101,0.008 1.162,0.105 1.183,0.215L0.917,0.209L0.915,0.284L1.157,0.29C1.132,0.292 1.103,0.294 1.076,0.297C1.004,0.303 0.744,0.342 0.84,0.453C0.936,0.564 1.073,0.428 1.177,0.35C1.181,0.348 1.185,0.345 1.189,0.343C1.187,0.363 1.184,0.383 1.18,0.404ZM1.047,-0.333C1.077,-0.487 0.986,-0.635 0.835,-0.665C0.655,-0.7 0.469,-0.641 0.318,-0.507C0.19,-0.373 0.281,-0.334 0.32,-0.338C0.42,-0.349 0.521,-0.391 0.521,-0.391C0.521,-0.391 0.529,-0.445 0.541,-0.492C0.552,-0.539 0.563,-0.57 0.583,-0.583C0.604,-0.596 0.638,-0.605 0.648,-0.608C0.659,-0.611 0.707,-0.627 0.707,-0.627C0.707,-0.627 0.72,-0.623 0.726,-0.603C0.733,-0.582 0.752,-0.528 0.758,-0.49C0.763,-0.453 0.771,-0.416 0.792,-0.406C0.82,-0.392 0.84,-0.375 0.852,-0.325C0.861,-0.288 0.862,-0.183 0.854,-0.152C0.847,-0.122 0.816,-0.099 0.792,-0.083C0.768,-0.066 0.723,-0.05 0.702,-0.037C0.688,-0.028 0.658,-0.003 0.635,0.02C0.866,-0.039 1.023,-0.207 1.047,-0.333ZM0.887,0.272L0.888,0.221L0.3,0.206L0.298,0.258L0.887,0.272ZM0.174,-0.338C0.157,-0.313 0.141,-0.286 0.126,-0.258C0.138,-0.278 0.154,-0.307 0.174,-0.338Z" style="fill:url(#_Linear3);fill-rule:nonzero;"/>
            </g>
            <g transform="matrix(-7.75929,-75.8194,-75.8194,7.75929,56.1558,116.254)">
                <path d="M1.103,-0.089C1.079,-0.076 1.049,-0.057 1.034,-0.043C1.007,-0.016 0.945,0.043 0.907,0.059C0.87,0.076 0.823,0.087 0.809,0.057C0.794,0.026 0.822,0.003 0.86,-0.017C0.899,-0.038 0.99,-0.071 1.052,-0.085C1.073,-0.09 1.089,-0.094 1.103,-0.098L1.103,-0.089Z" style="fill:url(#_Linear4);fill-rule:nonzero;"/>
            </g>
            <g transform="matrix(1.66271,-68.5034,-68.5034,-1.66271,55.0023,113.518)">
                <path d="M1.306,0.014L1.287,0.014L1.288,0.017C1.288,0.017 1.227,0.04 1.189,0.064C1.19,0.055 1.19,0.047 1.19,0.038C1.215,0.028 1.234,0.021 1.234,0.021C1.234,0.021 1.22,0.025 1.191,0.029C1.191,-0.003 1.189,-0.034 1.183,-0.064L1.308,-0.061L1.306,0.014Z" style="fill:url(#_Linear5);fill-rule:nonzero;"/>
            </g>
        </g>
    </g>
    <defs>
        <linearGradient id="_Linear1" x1="0" y1="0" x2="1" y2="0" gradientUnits="userSpaceOnUse" gradientTransform="matrix(-0.610136,0.792297,-0.792297,-0.610136,0.152931,-0.0752525)"><stop offset="0" style="stop-color:rgb(165,28,49);stop-opacity:1"/><stop offset="1" style="stop-color:rgb(228,4,39);stop-opacity:1"/></linearGradient>
        <linearGradient id="_Linear2" x1="0" y1="0" x2="1" y2="0" gradientUnits="userSpaceOnUse" gradientTransform="matrix(1,0,0,1,0,0.140305)"><stop offset="0" style="stop-color:rgb(165,28,49);stop-opacity:1"/><stop offset="1" style="stop-color:rgb(228,4,39);stop-opacity:1"/></linearGradient>
        <linearGradient id="_Linear3" x1="0" y1="0" x2="1" y2="0" gradientUnits="userSpaceOnUse" gradientTransform="matrix(1,0,0,1,0,-0.0415902)"><stop offset="0" style="stop-color:rgb(165,28,49);stop-opacity:1"/><stop offset="1" style="stop-color:rgb(228,4,39);stop-opacity:1"/></linearGradient>
        <linearGradient id="_Linear4" x1="0" y1="0" x2="1" y2="0" gradientUnits="userSpaceOnUse" gradientTransform="matrix(1,-1.38778e-17,1.38778e-17,1,0,-0.0109382)"><stop offset="0" style="stop-color:rgb(165,28,49);stop-opacity:1"/><stop offset="1" style="stop-color:rgb(228,4,39);stop-opacity:1"/></linearGradient>
        <linearGradient id="_Linear5" x1="0" y1="0" x2="1" y2="0" gradientUnits="userSpaceOnUse" gradientTransform="matrix(1,0,0,1,0,2.55209e-06)"><stop offset="0" style="stop-color:rgb(165,28,49);stop-opacity:1"/><stop offset="1" style="stop-color:rgb(228,4,39);stop-opacity:1"/></linearGradient>
    </defs>
</svg>
